<svg width="155" height="32" viewBox="0 0 155 32" fill="none" xmlns="http://www.w3.org/2000/svg">
<g clip-path="url(#clip0_310_16)">
<path d="M52.387 22.5521C55.3241 22.5521 56.8059 21.2619 57.5732 20.2876C59.0815 18.2864 59.2138 15.1266 59.2138 13.1255C59.2138 10.9136 59.1079 8.28048 57.3351 6.30562C56.1973 5.06805 54.4774 4.12012 51.9107 4.12012H44.6606C43.5228 4.12012 42.9671 4.62041 42.6761 4.91006C42.0675 5.62101 42.041 6.35829 42.041 7.06924V20.2086C42.041 21.2355 42.4644 21.7622 42.8084 22.0518C42.9407 22.1571 43.4963 22.5521 44.8723 22.5521H52.387ZM45.5338 7.99084C45.5338 7.59586 45.6925 7.25356 45.9042 7.06924C46.1424 6.88492 46.5128 6.88492 46.7245 6.88492H50.3496C51.6197 6.88492 53.2602 7.09557 54.3186 8.22782C55.4829 9.43906 55.6152 11.3086 55.6152 12.8622C55.6152 15.9956 55.1389 17.3648 54.6891 18.0758C53.8688 19.366 52.6252 19.7873 50.6935 19.7873H46.6716C46.354 19.7873 46.0101 19.8136 45.7719 19.524C45.4809 19.2343 45.5338 18.9184 45.5338 18.5234V7.99084Z" fill="#FFFFFF"/>
<path d="M61.9928 8.59668V10.9665H68.899C69.4017 10.9665 69.9839 11.0455 70.4072 11.5721C70.7512 11.9934 70.8041 12.4674 70.8041 12.8887V13.863H64.7183C63.9774 13.863 63.0248 13.9156 62.1516 14.6792C61.0932 15.6008 60.9609 16.8384 60.9609 18.076C60.9609 19.1292 61.0403 20.8671 62.1781 21.8677C62.9983 22.5786 63.9509 22.5523 64.7183 22.5523H71.4127C72.0742 22.5523 72.8416 22.4996 73.3443 21.9993C73.8471 21.499 73.9 20.7091 73.9 20.2088V12.9677C73.9 11.3878 73.4766 10.2819 72.868 9.67627C72.233 9.01798 71.1481 8.59668 69.9574 8.59668H61.9928ZM70.8041 16.2328V19.4452C70.9629 19.8665 70.3278 20.2878 69.9045 20.1825H65.5914C65.1945 20.1825 64.7976 19.9718 64.586 19.7612C64.189 19.3662 64.1626 18.6289 64.1626 18.2076C64.1626 17.1807 64.4007 16.8384 64.5066 16.7067C64.8506 16.2591 65.4327 16.2328 65.6444 16.2328H70.8041Z" fill="#FFFFFF"/>
<path d="M83.9732 22.5521V20.1823H83.2059C82.6502 20.1823 81.5124 20.1823 80.798 19.5766C80.11 19.05 79.9777 18.1021 79.9777 17.3648V10.9663H83.8938V8.59646H79.9777V4.12012H76.8818V8.59646H74.9502V10.9663H76.8818V17.9968C76.8818 19.7873 77.3581 20.7879 78.2842 21.5252C79.1574 22.2361 80.1365 22.5521 82.0416 22.5521H83.9732Z" fill="#FFFFFF"/>
<path d="M85.6883 8.59668V10.9665H92.5943C93.0971 10.9665 93.6793 11.0455 94.1026 11.5721C94.4466 11.9934 94.4995 12.4674 94.4995 12.8887V13.863H88.4137C87.6728 13.863 86.7202 13.9156 85.847 14.6792C84.7886 15.6008 84.6562 16.8384 84.6562 18.076C84.6562 19.1292 84.7357 20.8671 85.8735 21.8677C86.6938 22.5786 87.6463 22.5523 88.4137 22.5523H95.1081C95.7696 22.5523 96.5369 22.4996 97.0396 21.9993C97.5424 21.499 97.5954 20.7091 97.5954 20.2088V12.9677C97.5954 11.3878 97.1719 10.2819 96.5634 9.67627C95.9283 9.01798 94.8435 8.59668 93.6528 8.59668H85.6883ZM94.4995 16.2328V19.4452C94.6582 19.8665 94.0232 20.2878 93.5998 20.1825H89.2868C88.8899 20.1825 88.493 19.9718 88.2813 19.7612C87.8844 19.3662 87.858 18.6289 87.858 18.2076C87.858 17.1807 88.0962 16.8384 88.202 16.7067C88.546 16.2591 89.1281 16.2328 89.3398 16.2328H94.4995Z" fill="#FFFFFF"/>
<path d="M109.627 22.5523C109.548 23.2106 109.257 23.7635 108.807 24.1585C108.066 24.7641 106.875 24.7905 106.214 24.7905H100.313V27.1603H106.928C107.881 27.1603 110.341 27.0023 111.612 25.4751C112.538 24.3428 112.749 22.7629 112.749 20.9724V11.1772C112.749 10.5715 112.644 9.75526 111.929 9.14964C111.268 8.62301 110.474 8.59668 109.654 8.59668H105.129C103.7 8.59668 102.139 8.67567 100.816 10.1239C99.5722 11.4668 99.334 13.152 99.334 15.3638C99.334 17.839 99.7045 19.6295 100.419 20.7618C101.477 22.4206 103.224 22.5523 104.653 22.5523H109.627ZM109.654 20.1825H105.976C105.049 20.1825 104.044 20.1825 103.329 19.3662C102.986 19.0239 102.536 18.076 102.536 15.6008C102.536 14.9425 102.536 12.8097 103.382 11.8354C103.885 11.2825 104.758 10.9665 105.79 10.9665H108.436C108.727 10.9665 108.966 10.9928 109.257 11.1772C109.601 11.4141 109.654 11.6775 109.654 12.0724V20.1825Z" fill="#FFFFFF"/>
<path d="M115.534 8.59668V10.9665H122.44C122.943 10.9665 123.525 11.0455 123.948 11.5721C124.292 11.9934 124.345 12.4674 124.345 12.8887V13.863H118.259C117.518 13.863 116.566 13.9156 115.693 14.6792C114.634 15.6008 114.502 16.8384 114.502 18.076C114.502 19.1292 114.581 20.8671 115.719 21.8677C116.539 22.5786 117.492 22.5523 118.259 22.5523H124.954C125.615 22.5523 126.383 22.4996 126.885 21.9993C127.388 21.499 127.441 20.7091 127.441 20.2088V12.9677C127.441 11.3878 127.018 10.2819 126.409 9.67627C125.774 9.01798 124.689 8.59668 123.498 8.59668H115.534ZM124.345 16.2328V19.4452C124.504 19.8665 123.869 20.2878 123.446 20.1825H119.133C118.736 20.1825 118.339 19.9718 118.127 19.7612C117.73 19.3662 117.704 18.6289 117.704 18.2076C117.704 17.1807 117.942 16.8384 118.048 16.7067C118.392 16.2591 118.974 16.2328 119.185 16.2328H124.345Z" fill="#FFFFFF"/>
<path d="M130.528 22.5523H140.663V20.1825H132.513C132.46 20.1825 132.434 20.1298 132.434 20.0508C132.434 19.9718 132.513 19.8402 132.645 19.7085L139.922 12.2567C140.319 11.8618 140.742 11.4141 140.742 10.3609C140.742 9.22863 140.001 8.59668 138.916 8.59668H128.994V10.9665H136.641C136.852 10.9665 136.905 11.0982 136.905 11.1772C136.905 11.2561 136.879 11.3088 136.694 11.4931L129.496 18.6816C128.994 19.1819 128.544 19.6295 128.544 20.6828C128.544 22.4733 130.026 22.5523 130.528 22.5523Z" fill="#FFFFFF"/>
<path d="M154.55 22.5523V20.1825H147.697C146.559 20.1825 145.289 19.9981 144.866 18.5236C144.76 18.1023 144.681 17.207 144.681 16.6014H152.83C153.386 16.6014 153.915 16.4961 154.339 16.0748C154.947 15.4691 155 14.6792 155 13.9682C155 12.204 154.63 10.4925 153.016 9.43921C151.719 8.62294 150.052 8.54395 148.385 8.54395C147.062 8.54395 144.681 8.54395 143.146 9.86052C141.584 11.2034 141.479 13.0729 141.479 15.7061C141.479 17.5757 141.558 19.4452 142.484 20.7881C143.622 22.4206 145.342 22.5523 146.771 22.5523H154.55ZM144.681 14.2316C144.707 13.3099 144.681 12.5463 145.316 11.8354C146.189 10.8874 147.406 10.9138 148.253 10.9138C149.126 10.9138 150.131 10.9401 150.899 11.5457C151.349 11.888 151.798 12.5463 151.798 13.4153C151.798 13.8102 151.719 14.2316 151.11 14.2316H144.681Z" fill="#FFFFFF"/>
</g>
<g clip-path="url(#clip1_310_16)">
<path d="M15.6047 0.167114C13.0052 0.236229 10.5516 0.904335 8.30542 2.153C5.02709 3.97532 2.48752 6.92036 1.1682 10.4306C0.366473 12.5639 0.0385627 14.8501 0.20367 17.1601C0.397958 19.8663 1.2857 22.4688 2.79162 24.7435C3.25085 25.4361 3.76383 26.0904 4.35822 26.7401C4.64082 27.0488 5.16609 27.5618 5.52164 27.8774C7.16119 29.328 9.13787 30.4477 11.219 31.1028C13.2271 31.7355 15.3459 31.9621 17.4593 31.7693C19.4359 31.5896 21.3481 31.0421 23.119 30.149C25.9227 28.736 28.238 26.5289 29.79 23.7912C31.319 21.095 32.0132 18.0094 31.7967 14.8754C31.6185 12.309 30.8152 9.82855 29.4545 7.64223C28.9253 6.79212 28.3455 6.03109 27.6352 5.25317C27.4686 5.07117 26.9241 4.52747 26.7398 4.35852C25.8252 3.52147 24.9013 2.84415 23.8508 2.24208C23.2472 1.89574 22.5392 1.55324 21.8818 1.28984C20.2822 0.650148 18.605 0.280769 16.8564 0.184777C16.5024 0.165578 15.9526 0.157899 15.6047 0.167114ZM16.1576 4.18574C16.8756 4.23028 17.5337 4.44837 18.1227 4.83618C18.5052 5.08806 18.8607 5.42212 19.1326 5.78689C19.5488 6.34364 19.8168 7.01175 19.8967 7.69061C19.919 7.87722 19.9274 7.97935 19.932 8.10222C19.962 8.90549 20.243 9.69109 20.7337 10.3408C20.9488 10.6257 21.239 10.9136 21.5309 11.1325C21.9663 11.4589 22.4939 11.7031 23.0191 11.8221C23.2887 11.8828 23.4784 11.9066 23.7794 11.9189C24.0505 11.9296 24.2325 11.9504 24.459 11.9964C25.217 12.15 25.8997 12.511 26.4549 13.0516C27.1529 13.7327 27.5653 14.6059 27.6506 15.5866C27.6675 15.7847 27.6621 16.1794 27.639 16.3691C27.4747 17.7245 26.6668 18.8795 25.4566 19.4908C24.9129 19.7657 24.3477 19.9039 23.7103 19.9177C23.3747 19.9246 23.1359 19.9554 22.8425 20.0283C21.4802 20.3654 20.4058 21.4237 20.0472 22.7806C19.9696 23.0747 19.9312 23.3566 19.9128 23.7758C19.8913 24.265 19.8022 24.6912 19.631 25.1236C19.5803 25.2518 19.4582 25.5052 19.3906 25.6227C18.9867 26.3254 18.3831 26.8891 17.6589 27.24C16.9685 27.5748 16.1937 27.7023 15.4281 27.6079C13.8845 27.4166 12.5951 26.3477 12.1159 24.8625C11.9416 24.3219 11.8848 23.7213 11.9539 23.1615C12.0307 22.5418 12.2511 21.9435 12.589 21.4375C12.7372 21.2155 12.8777 21.0428 13.0697 20.8469C13.4061 20.5052 13.7378 20.2648 14.1648 20.0552C14.6808 19.801 15.1892 19.6735 15.7967 19.6443C15.9917 19.6351 16.1008 19.6251 16.2651 19.6013C17.3656 19.4447 18.3654 18.8127 18.9936 17.8781C19.1357 17.6669 19.2954 17.3651 19.3868 17.1332C19.5273 16.7799 19.6156 16.4098 19.6517 16.0227C19.6586 15.9536 19.6586 15.896 19.6517 15.7962C19.5972 14.9553 19.2923 14.1912 18.7525 13.5431C18.6703 13.4448 18.4576 13.2274 18.3539 13.1368C17.9177 12.7529 17.394 12.4687 16.8411 12.3151C16.5108 12.223 16.2935 12.1938 15.7391 12.1646C15.4426 12.1485 15.2261 12.1162 14.9404 12.0441C14.3407 11.8928 13.7801 11.5986 13.3009 11.1817C13.1849 11.0811 12.9714 10.8645 12.8793 10.7554C12.3386 10.1088 12.0353 9.38314 11.9478 8.52459C11.9347 8.39865 11.9347 7.96092 11.9478 7.8296C12.0307 6.98641 12.3348 6.25072 12.8631 5.6141C12.9699 5.48509 13.1872 5.26546 13.3224 5.14873C13.5919 4.91681 13.8407 4.75248 14.1648 4.59274C14.3691 4.49214 14.4988 4.43916 14.697 4.37465C15.0364 4.26483 15.3559 4.20647 15.7467 4.18343C15.8427 4.17729 16.0416 4.17883 16.1576 4.18574Z" fill="#6C64FF"/>
</g>
<defs>
<clipPath id="clip0_310_16">
<rect width="113" height="24" fill="#FFFFFF" transform="translate(42 4)"/>
</clipPath>
<clipPath id="clip1_310_16">
<rect width="32" height="32" fill="#FFFFFF"/>
</clipPath>
</defs>
</svg>