<svg width="18" height="23" viewBox="0 0 18 23" fill="none" xmlns="http://www.w3.org/2000/svg">
<path d="M0.97929 22.3999V0.58172H9.71509C11.3202 0.58172 12.659 0.819646 13.7314 1.2955C14.8039 1.77135 15.61 2.43186 16.1497 3.27703C16.6895 4.1151 16.9594 5.08101 16.9594 6.17476C16.9594 7.02703 16.7889 7.77632 16.448 8.42263C16.1071 9.06183 15.6384 9.5874 15.0418 9.99933C14.4523 10.4042 13.7776 10.6918 13.0176 10.8623V11.0753C13.8486 11.1108 14.6263 11.3452 15.3507 11.7785C16.0823 12.2117 16.6753 12.8189 17.1299 13.6002C17.5844 14.3743 17.8117 15.2976 17.8117 16.3701C17.8117 17.5277 17.524 18.5611 16.9488 19.4702C16.3806 20.3722 15.5389 21.086 14.4239 21.6116C13.3088 22.1371 11.9345 22.3999 10.301 22.3999H0.97929ZM5.59222 18.6286H9.35287C10.6384 18.6286 11.5759 18.3836 12.1654 17.8935C12.7549 17.3964 13.0496 16.7358 13.0496 15.912C13.0496 15.3083 12.904 14.7756 12.6128 14.314C12.3216 13.8523 11.9061 13.4901 11.3664 13.2273C10.8337 12.9645 10.198 12.8331 9.4594 12.8331H5.59222V18.6286ZM5.59222 9.71169H9.01196C9.64406 9.71169 10.2051 9.60161 10.6952 9.38144C11.1924 9.15416 11.583 8.83456 11.8671 8.42263C12.1583 8.0107 12.3039 7.51709 12.3039 6.94181C12.3039 6.15345 12.0233 5.5178 11.4622 5.03484C10.9083 4.55189 10.1199 4.31041 9.09719 4.31041H5.59222V9.71169Z" fill="#6C64FF"/>
</svg>
