<svg width="24" height="18" viewBox="0 0 24 18" fill="none" xmlns="http://www.w3.org/2000/svg">
<path d="M5.60005 2.59995C5.60005 3.92544 4.52553 4.99995 3.20005 4.99995C1.87457 4.99995 0.800049 3.92544 0.800049 2.59995C0.800049 1.27447 1.87457 0.199951 3.20005 0.199951C4.52553 0.199951 5.60005 1.27447 5.60005 2.59995Z" fill="#6C64FF"/>
<path d="M7.19995 4.1001H23.2V1.1001H7.19995V4.1001Z" fill="#6C64FF"/>
<path d="M3.20005 17.8C4.52553 17.8 5.60005 16.7255 5.60005 15.4C5.60005 14.0745 4.52553 13 3.20005 13C1.87457 13 0.800049 14.0745 0.800049 15.4C0.800049 16.7255 1.87457 17.8 3.20005 17.8Z" fill="#6C64FF"/>
<path d="M23.2 10.5H7.19995V7.5H23.2V10.5Z" fill="#6C64FF"/>
<path d="M7.19995 16.8999H23.2V13.8999H7.19995V16.8999Z" fill="#6C64FF"/>
<path d="M3.20005 11.4001C4.52553 11.4001 5.60005 10.3256 5.60005 9.0001C5.60005 7.67461 4.52553 6.6001 3.20005 6.6001C1.87457 6.6001 0.800049 7.67461 0.800049 9.0001C0.800049 10.3256 1.87457 11.4001 3.20005 11.4001Z" fill="#6C64FF"/>
</svg>
