<svg width="18" height="18" viewBox="0 0 18 18" fill="none" xmlns="http://www.w3.org/2000/svg">
<g clip-path="url(#clip0_160_346)">
<path d="M8.9999 13.7666C10.7497 13.7645 12.4272 13.0684 13.6644 11.8312C14.9017 10.5939 15.5978 8.91639 15.5999 7.16662V0.199951H13.3999V7.16662C13.3999 8.33357 12.9363 9.45273 12.1112 10.2779C11.286 11.103 10.1669 11.5666 8.9999 11.5666C7.83295 11.5666 6.71379 11.103 5.88863 10.2779C5.06347 9.45273 4.5999 8.33357 4.5999 7.16662V0.199951H2.3999V7.16662C2.40204 8.91639 3.09808 10.5939 4.33536 11.8312C5.57263 13.0684 7.25013 13.7645 8.9999 13.7666Z" fill="#6C64FF"/>
<path d="M17.8 15.5999H0.199951V17.7999H17.8V15.5999Z" fill="#6C64FF"/>
</g>
<defs>
<clipPath id="clip0_160_346">
<rect width="17.6" height="17.6" fill="white" transform="translate(0.199951 0.199951)"/>
</clipPath>
</defs>
</svg>
