<?xml version="1.0" standalone="no"?>
<!DOCTYPE svg PUBLIC "-//W3C//DTD SVG 20010904//EN"
 "http://www.w3.org/TR/2001/REC-SVG-20010904/DTD/svg10.dtd">
<svg version="1.0" xmlns="http://www.w3.org/2000/svg"
 width="775.000000pt" height="775.000000pt" viewBox="0 0 775.000000 775.000000"
 preserveAspectRatio="xMidYMid meet">
<metadata>
Created by potrace 1.14, written by Peter Selinger 2001-2017
</metadata>
<g transform="translate(0.000000,775.000000) scale(0.100000,-0.100000)"
fill="#000000" stroke="none">
<path d="M635 4655 c-282 -60 -509 -272 -596 -555 -35 -117 -37 -295 -4 -419
73 -274 272 -478 545 -562 64 -20 97 -23 220 -23 123 0 156 3 220 23 217 66
392 215 490 414 58 120 74 191 75 332 0 140 -6 188 -35 269 -91 264 -319 466
-584 520 -86 18 -251 18 -331 1z m267 -216 c60 -42 85 -85 94 -161 12 -106 84
-181 187 -193 122 -15 196 -89 199 -198 2 -107 -82 -192 -200 -204 -55 -5 -81
-15 -119 -47 -39 -33 -60 -77 -68 -145 -10 -86 -42 -133 -117 -172 -94 -48
-221 0 -265 101 -30 70 -9 175 43 221 31 27 82 49 127 55 68 9 102 22 137 57
78 76 81 180 6 260 -33 35 -75 53 -148 61 -204 25 -246 296 -58 381 49 22 139
14 182 -16z"/>
<path d="M2183 4464 c-42 -15 -70 -49 -77 -94 -3 -19 -5 -191 -4 -382 0 -392
2 -403 68 -424 23 -8 123 -11 290 -10 241 2 258 3 305 25 92 41 144 113 183
251 3 8 6 86 8 172 4 209 -18 288 -105 377 -33 34 -109 75 -161 86 -57 13
-469 12 -507 -1z m427 -138 c74 -21 114 -53 143 -116 17 -38 21 -65 21 -170 1
-200 -19 -268 -97 -317 -41 -26 -47 -27 -208 -31 -145 -3 -167 -1 -179 14 -11
13 -14 74 -15 293 0 152 3 288 8 303 5 15 16 28 25 30 29 7 276 1 302 -6z"/>
<path d="M3851 4470 c-4 -3 -7 -52 -7 -110 l0 -105 -46 -3 c-52 -3 -56 -11
-49 -84 3 -36 4 -37 49 -40 l46 -3 1 -210 c2 -220 5 -240 49 -292 39 -46 100
-66 209 -67 l92 -1 3 58 c2 41 -1 57 -10 58 -113 4 -150 19 -175 70 -10 21
-16 166 -13 351 l0 37 98 3 97 3 0 57 0 58 -97 0 -98 0 0 110 c0 61 -3 110 -7
111 -29 4 -136 3 -142 -1z"/>
<path d="M7323 4248 c-105 -11 -181 -56 -218 -127 -22 -44 -33 -134 -30 -251
3 -128 23 -205 66 -249 57 -60 78 -64 346 -67 l242 -2 0 59 c-1 38 -5 59 -12
60 -7 0 -100 1 -207 2 -185 2 -197 3 -227 25 -30 21 -43 55 -48 130 l-2 22
219 0 c248 0 268 4 288 66 17 50 7 162 -19 212 -20 39 -59 76 -108 101 -41 21
-188 31 -290 19z m204 -135 c32 -15 63 -65 63 -100 -1 -42 -9 -44 -186 -41
-186 3 -178 0 -161 68 13 50 58 85 117 92 48 6 135 -4 167 -19z"/>
<path d="M3100 4191 l0 -61 194 0 193 0 27 -26 c21 -21 26 -36 26 -73 l0 -46
-189 0 c-183 0 -189 -1 -224 -25 -20 -13 -46 -44 -58 -68 -18 -38 -21 -56 -17
-136 4 -101 21 -142 71 -180 27 -20 41 -21 260 -22 128 -1 242 2 254 7 12 4
30 20 40 36 16 24 18 52 17 268 0 229 -1 243 -23 287 -13 29 -36 56 -59 70
-36 22 -46 23 -274 26 l-238 3 0 -60z m440 -416 l0 -93 -27 -6 c-16 -3 -79 -5
-142 -5 -106 1 -116 3 -138 25 -37 37 -31 143 10 162 12 5 84 10 160 10 l137
1 0 -94z"/>
<path d="M4285 4190 l0 -60 190 0 c152 0 195 -3 212 -15 30 -21 43 -68 34
-122 0 -5 -74 -7 -163 -7 -176 2 -221 -5 -262 -37 -45 -35 -59 -76 -60 -169
-1 -104 21 -169 67 -202 31 -22 40 -23 261 -25 126 0 241 3 257 9 55 19 61 52
57 321 -3 257 -6 275 -56 320 -44 40 -88 46 -317 47 l-220 0 0 -60z m440 -413
c0 -74 -2 -90 -17 -98 -18 -10 -212 -11 -261 -2 -36 6 -55 45 -52 104 4 83 15
88 195 86 l135 -2 0 -88z"/>
<path d="M5148 4240 c-91 -28 -156 -107 -173 -210 -20 -116 -2 -299 37 -369
52 -94 80 -104 291 -107 93 -1 171 -5 174 -7 9 -10 -22 -60 -50 -81 -26 -19
-44 -21 -215 -24 -103 -2 -189 -5 -191 -8 -2 -2 -4 -29 -5 -60 l-2 -56 216 4
c206 4 217 5 271 30 59 27 97 68 119 128 9 25 14 124 16 354 2 269 0 323 -13
350 -27 58 -39 61 -253 63 -107 1 -207 -2 -222 -7z m322 -125 c8 -10 12 -72
12 -212 0 -109 -1 -206 -1 -215 -1 -16 -13 -18 -123 -16 -168 1 -190 13 -222
112 -11 33 -8 189 4 238 12 48 50 92 85 101 11 3 68 5 126 6 82 1 109 -2 119
-14z"/>
<path d="M5775 4193 l0 -58 196 -3 c192 -2 196 -3 218 -26 16 -17 23 -38 24
-72 l2 -48 -185 -1 c-190 -1 -213 -5 -251 -45 -34 -34 -51 -83 -53 -149 -4
-109 28 -190 89 -224 26 -15 448 -20 493 -5 60 18 63 31 64 285 0 300 -11 340
-107 384 -35 16 -68 19 -265 19 l-225 0 0 -57z m441 -408 c2 -118 8 -115 -149
-113 -93 0 -139 5 -152 14 -36 27 -36 141 1 168 13 10 56 13 159 12 l140 -1 1
-80z"/>
<path d="M6450 4190 l0 -60 193 0 c107 0 196 -3 200 -6 3 -3 -84 -95 -193
-204 -109 -108 -203 -206 -209 -218 -6 -11 -11 -39 -11 -61 0 -41 17 -67 54
-80 12 -5 139 -8 284 -8 249 0 262 0 263 18 1 24 1 87 0 97 -1 4 -93 6 -206 5
-169 -1 -204 1 -198 12 5 7 97 104 206 215 108 110 198 206 198 213 6 61 3 87
-14 108 l-19 24 -274 3 -274 3 0 -61z"/>
</g>
</svg>
